<?xml version="1.0" standalone="no"?>
<!DOCTYPE svg PUBLIC "-//W3C//DTD SVG 20010904//EN"
 "http://www.w3.org/TR/2001/REC-SVG-20010904/DTD/svg10.dtd">
<svg version="1.0" xmlns="http://www.w3.org/2000/svg"
 width="300.000000pt" height="300.000000pt" viewBox="0 0 300.000000 300.000000"
 preserveAspectRatio="xMidYMid meet">
<metadata>
Created by potrace 1.11, written by Peter Selinger 2001-2013
</metadata>
<g transform="translate(0.000000,300.000000) scale(0.100000,-0.100000)"
fill="#000000" stroke="none">
<path d="M2461 2694 c0 -11 3 -14 6 -6 3 7 2 16 -1 19 -3 4 -6 -2 -5 -13z"/>
<path d="M1970 2681 c0 -5 5 -13 10 -16 6 -3 10 -2 10 4 0 5 -4 13 -10 16 -5
3 -10 2 -10 -4z"/>
<path d="M2183 2645 c0 -8 4 -15 9 -15 5 0 6 -6 2 -12 -6 -10 -5 -10 7 -1 19
15 57 18 94 8 17 -5 38 -8 48 -6 26 4 49 -23 34 -40 -10 -11 -9 -11 5 0 16 12
16 15 2 36 -11 16 -25 24 -47 24 -96 2 -137 6 -137 13 0 4 -4 8 -8 8 -5 0 -9
-7 -9 -15z"/>
<path d="M1898 2645 c-2 -3 -37 -6 -76 -7 -40 -1 -72 -6 -72 -11 0 -4 -5 -5
-11 -1 -6 3 -22 -6 -35 -21 -28 -33 -27 -28 -13 -59 11 -23 33 -32 99 -39 14
-1 31 -6 39 -11 9 -6 12 -5 9 5 -3 8 -11 15 -19 15 -8 1 -18 3 -24 4 -5 1 -17
3 -25 4 -8 0 -13 8 -12 16 2 8 0 12 -3 8 -11 -10 -45 10 -45 27 0 16 27 26 85
31 62 6 65 7 65 17 0 5 10 3 23 -5 21 -14 22 -14 23 8 2 25 1 27 -8 19z m-98
-25 c0 -5 -8 -10 -17 -10 -15 0 -16 2 -3 10 19 12 20 12 20 0z"/>
<path d="M2598 2643 c7 -3 16 -2 19 1 4 3 -2 6 -13 5 -11 0 -14 -3 -6 -6z"/>
<path d="M1929 2638 c-4 -15 -6 -50 -3 -41 3 7 5 15 4 19 -1 4 4 11 12 15 10
7 10 9 1 9 -7 0 -13 -1 -14 -2z"/>
<path d="M2116 2631 c-4 -5 -17 -8 -31 -7 -13 2 -26 -3 -29 -10 -3 -8 -21 -13
-45 -12 -23 0 -38 4 -36 8 3 5 1 11 -5 15 -10 6 -14 -7 -11 -33 1 -7 -7 -28
-19 -47 -18 -29 -25 -33 -52 -28 -28 4 -30 3 -19 -11 14 -16 6 -76 -10 -76 -5
0 -9 -11 -9 -23 0 -46 -31 -60 -117 -54 -43 3 -98 9 -123 14 -68 12 -352 6
-330 -7 7 -5 6 -11 -6 -21 -16 -12 -17 -12 -9 1 8 13 7 13 -8 1 -9 -7 -26 -11
-37 -8 -11 3 -18 0 -17 -7 1 -6 -6 -10 -15 -8 -9 1 -19 -2 -23 -8 -3 -5 -11
-10 -16 -10 -6 0 -8 4 -5 9 3 5 -14 3 -39 -4 -32 -10 -46 -11 -51 -3 -4 7 -2
8 4 4 8 -5 10 -2 6 8 -3 9 -11 13 -17 9 -6 -4 -8 0 -4 11 4 10 1 19 -8 22 -8
4 -13 10 -10 14 2 4 -5 16 -17 26 -17 16 -16 9 10 -42 l31 -62 -29 -26 c-17
-14 -30 -24 -30 -21 0 8 -78 -47 -110 -77 -14 -13 -47 -41 -75 -63 -120 -96
-174 -178 -170 -259 2 -28 -1 -44 -8 -43 -6 1 -12 -7 -14 -18 -3 -15 -2 -17 5
-6 16 23 32 2 27 -35 -2 -18 -1 -34 3 -34 13 1 43 28 35 32 -4 3 -2 3 5 1 8
-1 20 -3 28 -3 9 0 13 -4 10 -8 -2 -4 4 -9 15 -9 10 -1 19 2 19 7 0 4 9 6 20
3 11 -3 20 -1 20 5 0 5 10 12 23 15 12 3 32 9 45 12 18 6 22 4 22 -14 0 -12
-6 -21 -15 -21 -8 0 -15 5 -15 11 0 5 5 7 12 3 7 -5 8 -3 3 6 -6 10 -11 9 -22
-5 -7 -11 -13 -16 -13 -12 0 19 -129 -70 -130 -89 0 -6 -11 -16 -25 -22 -24
-11 -25 -10 -26 18 -1 28 -3 38 -9 58 -1 4 -6 -4 -10 -18 -8 -24 -8 -24 -9 7
-1 17 -6 35 -12 39 -7 4 -9 0 -6 -12 13 -46 18 -122 8 -128 -11 -7 -105 84
-96 92 3 3 -5 10 -17 16 -13 6 -28 22 -34 34 -6 12 -15 26 -19 30 -5 4 -5 0
-1 -8 7 -13 6 -13 -6 0 -7 8 -26 26 -43 40 -25 20 -30 33 -32 70 -3 98 -7 129
-14 125 -4 -3 -10 12 -14 33 -7 41 -52 115 -73 120 -10 2 -10 -2 0 -17 7 -11
15 -18 20 -15 4 3 5 -9 3 -27 -2 -17 -1 -29 2 -26 19 19 62 -99 65 -178 2 -60
-8 -85 -33 -85 -10 0 -18 -4 -17 -9 2 -5 -16 -23 -40 -40 -23 -18 -40 -36 -37
-41 3 -5 0 -7 -8 -4 -8 3 -28 -9 -46 -25 -18 -17 -46 -37 -62 -45 -26 -13 -31
-13 -36 -1 -3 10 -13 13 -30 9 -19 -5 -24 -3 -21 7 3 8 15 14 27 13 23 -1 27
24 10 61 -8 17 -8 17 -6 -7 1 -15 -1 -27 -5 -28 -25 -1 -30 2 -24 15 3 8 1 15
-5 15 -7 0 -9 -10 -5 -25 5 -18 2 -25 -9 -25 -8 0 -15 -4 -15 -10 0 -5 5 -10
11 -10 5 0 7 -5 3 -12 -4 -6 -3 -8 4 -4 6 3 14 1 17 -5 4 -5 12 -8 19 -6 6 3
17 -2 24 -9 8 -9 9 -14 2 -14 -6 0 -8 -5 -4 -11 3 -6 8 -28 11 -48 2 -20 8
-45 13 -56 21 -48 70 -219 70 -245 0 -21 4 -27 18 -25 9 2 21 4 26 4 4 1 6 8
3 16 -4 8 -2 17 4 20 5 4 7 9 5 13 -6 10 16 26 39 30 11 2 31 14 45 27 34 31
91 59 99 48 3 -5 17 -6 31 -2 24 7 24 7 3 8 -34 2 -28 15 14 30 21 8 44 16 52
19 9 3 12 1 7 -6 -4 -7 -2 -12 4 -12 7 0 10 6 7 14 -7 19 10 32 50 39 26 5 35
2 43 -14 6 -11 15 -17 21 -14 5 4 9 -2 10 -12 0 -14 3 -12 10 6 5 13 7 26 4
29 -3 3 -5 -1 -6 -9 0 -8 -4 -6 -9 6 -8 19 -9 19 -9 1 -1 -20 -1 -20 -15 -1
-12 17 -11 23 9 47 24 29 41 81 31 97 -3 5 6 8 20 6 21 -2 29 4 38 26 7 16 16
26 20 22 4 -5 6 -1 4 7 -1 8 3 14 9 12 7 -1 12 4 10 10 -1 8 6 12 17 10 14 -3
17 1 12 14 -6 14 -4 15 10 4 9 -8 18 -10 22 -4 4 5 20 14 36 19 20 7 32 19 37
38 4 15 4 25 -1 22 -4 -3 -10 2 -13 10 -4 9 -1 12 9 8 9 -3 14 2 14 15 0 12
10 28 23 37 12 8 22 21 22 28 0 7 11 11 25 9 20 -2 22 -1 10 8 -13 10 -13 11
0 7 8 -2 16 -14 18 -28 2 -19 1 -21 -7 -9 -6 8 -11 11 -11 5 0 -5 10 -21 21
-35 18 -23 19 -23 9 -2 -7 15 -7 22 0 22 5 0 10 -5 10 -11 0 -5 4 -7 10 -4 6
4 7 -1 3 -11 -4 -11 -2 -15 4 -11 6 4 10 -1 10 -11 0 -40 3 -48 12 -34 6 11
10 8 15 -10 4 -15 24 -31 59 -48 28 -14 55 -28 58 -33 8 -12 49 -17 49 -6 0 5
-9 9 -20 9 -35 0 -21 15 15 17 36 2 96 44 104 74 24 94 24 166 0 196 -7 7 -10
16 -7 19 3 2 -10 21 -27 40 -18 20 -35 45 -38 56 -7 27 22 37 39 13 12 -17 18
-14 15 7 0 4 6 5 15 1 12 -5 13 -7 3 -14 -20 -12 -3 -22 17 -11 12 7 24 6 38
-3 26 -16 109 -31 86 -16 -26 18 25 13 64 -6 33 -15 66 -66 52 -80 -3 -3 -6 1
-6 10 0 10 -5 17 -11 17 -5 0 -8 4 -5 9 11 17 -21 34 -41 22 -13 -9 -14 -11
-3 -10 28 3 37 -1 37 -16 0 -18 -9 -19 -25 -3 -7 7 -12 8 -12 4 0 -5 -12 -1
-26 9 -14 9 -42 22 -63 30 -32 11 -38 11 -38 -1 0 -7 4 -11 9 -8 5 3 15 0 23
-6 8 -7 15 -9 15 -5 0 4 7 2 15 -5 8 -7 15 -9 15 -4 0 5 4 4 8 -3 4 -6 16 -13
27 -15 11 -1 26 -9 34 -16 12 -11 15 -11 22 0 7 10 9 10 9 -2 -1 -18 -25 -52
-32 -44 -3 3 -8 -7 -12 -21 -4 -14 -11 -25 -16 -25 -5 0 -7 -7 -4 -15 4 -8 -1
-17 -9 -21 -12 -4 -14 -16 -10 -55 3 -32 1 -55 -7 -64 -9 -11 -9 -15 -1 -15 7
0 10 -4 7 -9 -4 -5 2 -8 11 -6 24 3 38 -6 23 -15 -7 -4 9 -10 36 -14 86 -12
90 -15 58 -36 -15 -11 -31 -17 -35 -14 -4 2 -10 -5 -14 -15 -3 -11 -15 -23
-26 -26 -11 -4 -18 -9 -15 -12 3 -3 -1 -12 -9 -20 -20 -19 -19 -43 1 -43 8 0
12 5 9 11 -4 5 16 31 45 57 47 42 63 51 97 54 7 1 14 7 17 15 3 7 10 13 16 13
6 0 8 -4 5 -10 -4 -6 9 -10 32 -9 38 1 38 1 8 9 l-30 8 30 2 c17 1 34 2 39 1
5 -1 13 4 18 11 5 8 11 9 16 3 4 -5 12 -10 17 -10 20 0 105 -29 105 -36 0 -14
32 -19 52 -8 19 10 20 9 16 -15 -6 -31 24 -78 36 -58 4 7 2 12 -5 12 -7 0 -9
3 -6 7 4 3 2 12 -5 20 -9 11 -7 12 8 7 10 -4 25 -11 31 -17 21 -16 122 2 136
24 12 19 37 26 37 10 0 -5 13 -14 29 -21 16 -6 32 -18 35 -27 3 -8 11 -11 17
-7 7 4 9 3 5 -4 -3 -6 3 -13 14 -17 11 -3 20 -11 20 -16 0 -14 -8 -11 -48 17
l-37 26 27 -25 c15 -14 24 -29 20 -33 -4 -5 -3 -6 1 -2 12 9 47 -28 48 -49 0
-11 3 -13 6 -5 11 29 30 4 40 -53 2 -11 6 -78 9 -150 8 -185 14 -179 11 13 -1
89 1 162 5 162 5 0 8 -90 8 -199 0 -150 3 -201 13 -204 7 -4 3 -8 -10 -12 -26
-8 -29 -20 -10 -31 6 -4 9 -4 5 1 -4 4 3 16 15 26 12 10 18 18 14 19 -12 0 12
40 25 40 6 0 6 -6 -3 -17 -7 -10 0 -6 16 8 32 27 90 56 80 39 -3 -5 3 -10 14
-10 11 0 23 -4 26 -10 3 -5 12 -10 18 -10 7 0 6 4 -3 10 -13 8 -12 10 3 10 9
0 17 -5 17 -11 0 -5 5 -7 10 -4 6 3 10 2 10 -3 0 -5 9 -12 21 -15 12 -3 18
-10 15 -16 -4 -5 -2 -13 4 -16 8 -5 7 -12 -2 -23 -10 -15 -10 -15 2 -4 12 10
18 9 33 -10 10 -13 15 -16 11 -8 -4 8 -16 25 -27 38 -11 12 -15 22 -9 22 6 0
31 -25 55 -56 39 -49 45 -64 56 -137 18 -131 21 -158 12 -153 -4 3 -8 -1 -8
-9 0 -8 4 -12 9 -9 4 3 8 -2 8 -11 0 -9 -4 -13 -10 -10 -6 4 -10 -6 -9 -22 0
-25 1 -26 9 -8 8 17 9 17 7 -7 -1 -15 -4 -25 -7 -23 -3 2 -6 -24 -7 -57 -1
-34 -8 -67 -15 -77 -8 -9 -20 -29 -26 -46 l-12 -30 30 33 c16 18 30 40 30 50
0 10 5 23 12 30 7 7 8 12 3 12 -6 0 -5 4 2 8 20 13 21 306 1 318 -4 3 -6 10
-3 15 4 5 1 9 -6 9 -6 0 -9 8 -7 18 3 10 -1 27 -8 37 -8 10 -14 36 -14 58 0
33 3 38 18 32 9 -4 31 -11 47 -15 17 -3 29 -12 27 -19 -1 -7 2 -10 8 -6 6 3 8
11 5 16 -4 5 3 9 14 9 20 0 21 6 21 82 0 45 -3 79 -6 75 -4 -3 -28 2 -55 13
-27 10 -46 13 -42 7 4 -6 -7 -1 -24 11 -17 12 -36 22 -43 22 -6 0 -8 4 -5 10
3 6 -1 7 -9 4 -9 -4 -16 -1 -16 6 0 9 -4 9 -17 -1 -11 -10 -14 -10 -9 -1 4 6
3 12 -3 12 -6 0 -25 9 -43 21 -18 12 -24 18 -13 15 15 -5 12 0 -9 17 -30 24
-82 159 -69 180 3 6 1 7 -5 3 -8 -5 -12 2 -13 21 -1 15 -3 37 -4 48 -3 20 -36
102 -56 138 -5 10 -7 23 -3 29 4 6 3 8 -4 4 -6 -3 -13 6 -17 24 -4 16 -11 30
-16 30 -5 0 -9 6 -9 13 0 8 -14 33 -30 55 -17 23 -28 42 -25 42 3 0 -3 8 -12
18 -54 55 -92 106 -86 115 3 6 1 7 -5 3 -7 -4 -12 -2 -12 4 0 6 -4 9 -9 5 -5
-3 -12 4 -16 15 -3 11 -17 23 -30 26 -14 3 -22 11 -19 19 3 7 -2 15 -11 19
-10 3 -13 11 -8 18 12 20 14 48 4 48 -6 0 -8 -10 -6 -22 4 -21 3 -21 -21 5
-13 15 -31 27 -39 27 -8 0 -15 5 -15 11 0 6 -7 9 -15 6 -18 -7 -29 8 -21 30 6
14 9 14 30 -1 18 -12 26 -12 29 -3 4 9 6 9 6 -1 1 -7 6 -10 11 -7 6 4 10 3 9
-2 -4 -20 3 -22 26 -7 13 8 28 13 34 10 5 -3 12 0 14 6 3 8 6 6 6 -4 1 -12 6
-15 18 -11 12 5 14 3 8 -7 -5 -8 -4 -11 1 -7 5 3 9 22 9 43 0 35 -3 39 -35 46
-19 4 -48 5 -65 2 -24 -4 -27 -3 -15 6 12 9 7 10 -20 4 -38 -7 -70 -30 -70
-49 0 -14 -86 -27 -119 -18 -11 3 -18 10 -14 16 4 6 -2 8 -15 5 -16 -4 -20 -2
-17 13 3 12 -1 16 -11 12 -7 -3 -11 -10 -8 -17 3 -6 -8 4 -25 23 -33 36 -39
47 -18 35 6 -4 4 1 -5 12 -9 10 -17 22 -17 27 0 4 -3 22 -6 41 -5 22 -1 44 10
65 8 17 13 37 9 44 -4 7 -4 9 1 5 5 -5 15 1 22 12 8 11 18 18 23 15 10 -6 24
24 21 45 -2 13 -1 13 8 0 9 -12 14 -11 39 7 17 12 42 25 56 28 14 3 37 7 50
10 26 5 44 35 21 35 -7 0 -16 -4 -19 -9z m-102 -40 c3 -5 -3 -11 -15 -14 -16
-4 -18 -3 -8 9 13 16 16 17 23 5z m-253 -298 c13 -16 12 -17 -3 -4 -10 7 -18
15 -18 17 0 8 8 3 21 -13z m-81 1 c0 -8 -19 -13 -24 -6 -3 5 1 9 9 9 8 0 15
-2 15 -3z m437 -110 c-3 -3 -12 -4 -19 -1 -8 3 -5 6 6 6 11 1 17 -2 13 -5z
m-390 -46 c-3 -8 -6 -5 -6 6 -1 11 2 17 5 13 3 -3 4 -12 1 -19z m68 -18 c-3
-5 -12 -10 -18 -10 -7 0 -6 4 3 10 19 12 23 12 15 0z m445 -130 c0 -5 -2 -10
-4 -10 -3 0 -8 5 -11 10 -3 6 -1 10 4 10 6 0 11 -4 11 -10z m-59 -27 c13 -16
12 -17 -3 -4 -10 7 -18 15 -18 17 0 8 8 3 21 -13z m79 -48 c4 0 11 -3 15 -7 4
-3 0 -6 -8 -4 -20 3 -47 26 -47 40 0 6 7 2 16 -9 8 -11 19 -20 24 -20z m76 10
c-2 -7 0 -18 5 -24 6 -8 5 -8 -3 -1 -14 11 -19 52 -6 44 5 -4 7 -12 4 -19z
m-421 -114 c8 -17 12 -38 8 -47 -4 -12 -3 -15 5 -10 12 7 34 -32 25 -46 -2 -5
1 -8 7 -8 7 0 10 -7 6 -15 -3 -8 -2 -14 2 -14 18 3 35 -2 29 -8 -4 -3 -2 -12
4 -20 8 -8 8 -13 1 -13 -6 0 -12 3 -14 8 -4 9 -95 49 -130 56 -15 3 -38 2 -52
-4 -17 -6 -27 -6 -32 1 -4 8 -9 7 -15 -2 -7 -11 -9 -11 -9 -1 0 9 -6 9 -23 -3
-13 -8 -27 -12 -31 -8 -4 4 -11 1 -16 -7 -8 -13 -10 -13 -10 1 0 15 22 28 55
33 24 3 73 37 103 71 27 31 36 36 60 30 22 -5 25 -4 15 6 -7 7 -13 17 -13 21
0 16 10 7 25 -21z m-136 -54 c-2 -1 -15 -11 -29 -22 l-25 -20 19 23 c11 12 24
22 29 22 6 0 8 -1 6 -3z m-249 -33 c0 -8 -4 -12 -10 -9 -5 3 -10 10 -10 16 0
5 5 9 10 9 6 0 10 -7 10 -16z m130 -50 c0 -2 -9 0 -20 6 -11 6 -20 13 -20 16
0 2 9 0 20 -6 11 -6 20 -13 20 -16z m916 -129 c1 -8 -2 -15 -6 -15 -5 0 -8 9
-7 20 1 21 10 18 13 -5z m-156 -35 c0 -5 -8 -10 -17 -10 -15 0 -16 2 -3 10 19
12 20 12 20 0z m17 -32 c-1 -14 3 -22 11 -20 6 1 12 -5 12 -13 0 -21 -3 -19
-41 16 -28 27 -30 31 -11 25 13 -5 22 -3 22 3 0 6 2 11 5 11 3 0 4 -10 2 -22z
m51 -23 c-3 -3 -9 2 -12 12 -6 14 -5 15 5 6 7 -7 10 -15 7 -18z m53 -28 c-10
-9 -11 -8 -5 6 3 10 9 15 12 12 3 -3 0 -11 -7 -18z m306 -443 c-3 -3 -12 -4
-19 -1 -8 3 -5 6 6 6 11 1 17 -2 13 -5z"/>
<path d="M1900 1779 c0 -5 5 -7 10 -4 6 3 10 8 10 11 0 2 -4 4 -10 4 -5 0 -10
-5 -10 -11z"/>
<path d="M2403 2620 c2 -8 24 -26 50 -39 39 -21 44 -27 34 -41 -10 -13 -10
-13 4 -2 19 14 52 6 46 -12 -3 -6 -10 -10 -16 -8 -21 4 -11 -9 14 -18 14 -5
25 -13 24 -17 -3 -21 2 -33 12 -27 8 5 8 9 -1 14 -8 5 -8 10 -2 14 5 3 15 -1
22 -9 7 -8 9 -15 6 -15 -4 0 0 -7 9 -16 9 -10 14 -25 12 -35 -3 -11 -1 -22 4
-25 5 -3 9 -25 9 -50 0 -30 4 -43 11 -38 7 4 9 33 7 75 l-3 69 31 -4 c17 -2
41 -10 52 -17 17 -11 26 -10 49 1 l28 14 -35 4 c-19 2 -41 8 -47 14 -7 6 -24
7 -38 4 -16 -4 -25 -2 -25 5 0 8 -6 7 -17 -2 -13 -11 -15 -11 -9 -1 5 8 -3 29
-20 53 -22 32 -33 40 -51 36 -13 -2 -23 0 -23 4 0 5 -6 9 -14 9 -8 0 -18 9
-21 20 -4 11 -12 19 -18 18 -19 -4 -71 13 -80 25 -6 8 -7 7 -4 -3z m168 -104
c5 3 9 0 9 -5 0 -13 -27 -15 -34 -2 -3 4 -2 11 2 15 3 4 8 2 10 -3 2 -6 8 -9
13 -5z"/>
<path d="M2510 2596 c0 -2 8 -10 18 -17 15 -13 16 -12 3 4 -13 16 -21 21 -21
13z"/>
<path d="M2861 2584 c0 -11 3 -14 6 -6 3 7 2 16 -1 19 -3 4 -6 -2 -5 -13z"/>
<path d="M2658 2573 c-26 -6 -22 -21 5 -20 42 0 112 -13 115 -23 2 -6 15 -4
32 5 15 8 31 11 35 7 5 -4 5 -2 1 5 -3 6 -15 11 -26 10 -10 -1 -16 -5 -14 -9
3 -4 -2 -8 -11 -8 -10 0 -15 6 -12 13 3 8 -4 13 -22 13 -14 0 -39 2 -56 5 -16
3 -38 4 -47 2z"/>
<path d="M2595 2553 c8 -8 19 -11 25 -8 17 11 11 20 -15 21 -21 2 -22 0 -10
-13z"/>
<path d="M2830 2499 c5 -15 5 -30 2 -34 -13 -12 -10 -35 5 -35 13 0 13 2 2 17
-12 15 -12 16 2 11 12 -5 18 0 21 15 6 35 -2 56 -21 54 -15 -1 -17 -6 -11 -28z"/>
<path d="M2780 2506 c0 -3 9 -10 20 -16 11 -6 20 -8 20 -6 0 3 -9 10 -20 16
-11 6 -20 8 -20 6z"/>
<path d="M2010 2471 c-5 -11 -10 -27 -10 -36 0 -12 7 -8 24 12 23 27 25 43 6
43 -5 0 -14 -9 -20 -19z"/>
<path d="M2073 2483 c9 -2 17 -8 17 -11 0 -4 8 -12 19 -19 16 -10 19 -9 19 13
0 21 -5 24 -37 23 -20 -1 -28 -3 -18 -6z"/>
<path d="M2455 2472 c-23 -5 -44 -21 -29 -23 5 0 24 -2 42 -4 21 -2 32 1 32
10 0 16 -18 23 -45 17z"/>
<path d="M2505 2440 c-4 -12 -2 -27 4 -33 18 -18 29 5 15 32 l-12 23 -7 -22z"/>
<path d="M2390 2430 c0 -5 5 -10 10 -10 6 0 10 5 10 10 0 6 -4 10 -10 10 -5 0
-10 -4 -10 -10z"/>
<path d="M1130 2410 c6 -11 13 -20 16 -20 2 0 0 9 -6 20 -6 11 -13 20 -16 20
-2 0 0 -9 6 -20z"/>
<path d="M2601 2354 c0 -11 3 -14 6 -6 3 7 2 16 -1 19 -3 4 -6 -2 -5 -13z"/>
<path d="M2606 2270 c-10 -34 -14 -60 -8 -60 10 0 44 62 37 68 -3 3 -5 -1 -5
-9 0 -12 -2 -12 -10 1 -8 13 -9 13 -14 0z"/>
<path d="M2367 2219 c7 -7 15 -10 18 -7 3 3 -2 9 -12 12 -14 6 -15 5 -6 -5z"/>
<path d="M230 2200 c6 -11 13 -20 16 -20 2 0 0 9 -6 20 -6 11 -13 20 -16 20
-2 0 0 -9 6 -20z"/>
<path d="M2547 2203 c-12 -12 -7 -22 8 -17 8 4 15 10 15 15 0 11 -14 12 -23 2z"/>
<path d="M2515 2190 c-4 -6 -11 -8 -16 -5 -5 3 -6 -1 -3 -9 9 -23 34 -20 34 4
0 22 -5 26 -15 10z"/>
<path d="M325 2160 c3 -5 8 -10 11 -10 2 0 4 5 4 10 0 6 -5 10 -11 10 -5 0 -7
-4 -4 -10z"/>
<path d="M2450 2158 c0 -12 -11 -12 -60 -4 -60 10 -87 3 -60 -14 12 -8 10 -10
-7 -10 -12 0 -25 5 -29 11 -5 8 -10 6 -16 -5 -11 -20 1 -44 13 -25 7 11 14 11
41 1 25 -9 34 -9 39 0 4 7 28 12 53 13 25 0 46 3 46 8 0 4 7 7 16 7 23 0 11
24 -14 28 -14 2 -22 -2 -22 -10z m-73 -14 c-3 -3 -12 -4 -19 -1 -8 3 -5 6 6 6
11 1 17 -2 13 -5z"/>
<path d="M222 2128 c-15 -15 -15 -28 -1 -28 5 0 7 5 3 12 -5 8 -2 9 9 5 10 -3
17 -2 17 3 0 15 -16 20 -28 8z"/>
<path d="M90 2120 c0 -9 -72 -30 -82 -24 -4 3 -8 -4 -8 -15 0 -26 8 -27 26 -3
13 16 14 16 8 -3 -5 -18 -4 -18 6 -3 6 9 17 15 25 12 8 -4 15 -2 15 3 0 5 20
10 45 11 33 1 47 -3 54 -16 10 -17 12 -14 15 26 1 14 -8 17 -52 17 -28 1 -52
-2 -52 -5z"/>
<path d="M1370 2070 c-12 -8 -12 -10 3 -16 10 -3 21 -4 24 0 4 3 1 6 -6 6 -7
0 -9 5 -6 10 8 12 4 12 -15 0z"/>
<path d="M1528 2043 c7 -3 16 -2 19 1 4 3 -2 6 -13 5 -11 0 -14 -3 -6 -6z"/>
<path d="M296 1992 c-2 -4 4 -13 15 -20 22 -14 25 -7 5 14 -8 8 -17 11 -20 6z"/>
<path d="M1526 1958 c3 -5 10 -6 15 -3 13 9 11 12 -6 12 -8 0 -12 -4 -9 -9z"/>
<path d="M320 1939 c0 -5 5 -7 10 -4 6 3 10 8 10 11 0 2 -4 4 -10 4 -5 0 -10
-5 -10 -11z"/>
<path d="M332 1890 c0 -19 3 -44 8 -55 7 -17 9 -15 8 10 0 17 -4 41 -8 55 -7
23 -8 22 -8 -10z"/>
<path d="M613 1875 c0 -22 2 -30 4 -17 2 12 2 30 0 40 -3 9 -5 -1 -4 -23z"/>
<path d="M1483 1790 c0 -25 2 -35 4 -22 2 12 2 32 0 45 -2 12 -4 2 -4 -23z"/>
<path d="M585 1809 c-4 -6 -5 -12 -2 -15 2 -3 7 2 10 11 7 17 1 20 -8 4z"/>
<path d="M934 1754 c3 -9 6 -20 6 -25 0 -6 9 -8 20 -4 27 9 102 -13 94 -27 -5
-8 -2 -9 9 -5 19 7 49 -1 43 -12 -3 -4 9 -16 25 -26 16 -11 31 -27 34 -36 3
-9 14 -19 25 -22 17 -4 18 -2 9 14 -18 35 -99 109 -118 109 -30 0 -52 11 -44
23 4 6 -2 8 -15 5 -12 -4 -22 -2 -22 3 0 4 -7 6 -15 3 -8 -4 -15 -2 -15 3 0 5
-9 9 -21 10 -15 1 -19 -2 -15 -13z"/>
<path d="M8 1728 c5 -5 16 -8 23 -6 8 3 3 7 -10 11 -17 4 -21 3 -13 -5z"/>
<path d="M1476 1685 c-4 -10 -2 -14 5 -9 7 4 20 -4 30 -17 10 -13 19 -19 19
-12 0 6 -5 15 -10 18 -6 4 -7 12 -4 18 4 7 4 9 -1 5 -4 -4 -14 -3 -20 2 -9 8
-14 6 -19 -5z"/>
<path d="M97 1679 c7 -7 15 -10 18 -7 3 3 -2 9 -12 12 -14 6 -15 5 -6 -5z"/>
<path d="M914 1678 c-4 -7 -4 -10 1 -6 4 4 15 2 24 -5 14 -11 14 -10 2 6 -16
20 -18 21 -27 5z"/>
<path d="M1020 1680 c-9 -6 -10 -10 -3 -10 6 0 15 5 18 10 8 12 4 12 -15 0z"/>
<path d="M1055 1659 c-4 -6 -5 -12 -2 -15 2 -3 7 2 10 11 7 17 1 20 -8 4z"/>
<path d="M1797 1623 c-4 -3 -7 -11 -7 -17 0 -6 5 -5 12 2 6 6 9 14 7 17 -3 3
-9 2 -12 -2z"/>
<path d="M1483 1555 c0 -22 2 -30 4 -17 2 12 2 30 0 40 -3 9 -5 -1 -4 -23z"/>
<path d="M1980 1572 c0 -7 5 -12 11 -12 8 0 7 -6 -2 -17 -13 -16 -12 -17 3 -5
13 10 17 10 21 0 3 -7 6 -8 6 -2 1 6 -8 19 -19 29 -11 10 -20 13 -20 7z"/>
<path d="M52 1545 c0 -16 2 -22 5 -12 2 9 2 23 0 30 -3 6 -5 -1 -5 -18z"/>
<path d="M1184 1553 c2 -9 8 -18 15 -19 6 -1 7 0 1 3 -5 2 -8 9 -5 13 3 5 1
11 -4 14 -5 4 -8 -2 -7 -11z"/>
<path d="M2220 1551 c0 -5 7 -12 16 -15 14 -5 15 -4 4 9 -14 17 -20 19 -20 6z"/>
<path d="M2073 1510 c1 -25 -2 -34 -11 -32 -8 1 -11 -2 -7 -7 3 -6 12 -8 20
-4 10 3 15 -2 15 -17 0 -13 -4 -19 -12 -14 -7 4 -8 3 -4 -5 4 -6 11 -9 16 -6
5 3 15 -1 23 -10 13 -12 16 -12 20 0 3 7 2 15 -2 17 -4 2 -20 28 -34 58 -25
53 -26 54 -24 20z"/>
<path d="M690 1511 c0 -6 4 -13 10 -16 6 -3 7 1 4 9 -7 18 -14 21 -14 7z"/>
<path d="M2313 1492 c-9 -15 -8 -19 3 -19 8 0 14 9 14 19 0 10 -1 18 -3 18 -1
0 -7 -8 -14 -18z"/>
<path d="M995 1470 c4 -6 10 -8 15 -5 12 7 18 -4 21 -45 2 -23 -1 -34 -8 -33
-7 2 -10 -4 -7 -12 4 -8 11 -12 16 -9 7 4 8 -5 3 -25 -4 -21 -3 -31 5 -31 7 0
10 -6 7 -14 -4 -10 1 -13 21 -11 15 2 46 -5 70 -15 39 -18 42 -18 42 -2 0 12
-9 18 -27 20 -14 1 -29 4 -32 7 -3 3 10 4 28 3 18 -1 35 -6 38 -11 8 -13 -7
-58 -17 -52 -6 3 -10 1 -10 -4 0 -6 -3 -10 -8 -8 -4 1 -9 -2 -10 -8 -6 -17
-24 -35 -34 -35 -6 0 -5 7 2 15 20 24 -22 19 -54 -6 -18 -14 -26 -16 -27 -7 0
7 -7 -5 -15 -26 -8 -23 -12 -53 -8 -72 3 -17 1 -34 -4 -38 -22 -13 -40 7 -46
52 -10 74 -35 97 -118 106 -17 2 -15 13 4 25 11 7 17 8 13 2 -4 -7 3 -11 17
-10 13 0 17 3 10 6 -6 2 -9 9 -6 14 3 6 12 5 22 -3 15 -11 15 -11 4 3 -10 14
-10 18 1 22 20 7 68 97 60 110 -3 6 -1 7 6 3 7 -5 13 4 17 24 5 21 11 29 20
26 9 -3 14 2 14 15 0 11 -4 17 -10 14 -5 -3 -19 -1 -31 6 -18 9 -33 6 -85 -16
-69 -30 -126 -83 -151 -144 -14 -32 -17 -34 -24 -16 -5 13 -8 -5 -8 -50 0 -42
3 -65 8 -57 7 11 9 11 14 -1 3 -8 3 -18 -1 -21 -12 -13 -10 -38 3 -32 7 2 16
-1 19 -9 3 -10 0 -12 -12 -9 -15 5 -15 4 1 -9 10 -8 14 -17 9 -18 -4 -2 -2
-15 5 -29 7 -14 13 -18 13 -10 0 13 1 13 10 0 5 -9 5 -19 -1 -26 -7 -9 -5 -11
8 -8 11 3 27 -3 37 -15 11 -12 16 -21 11 -21 -4 0 -2 -7 5 -15 13 -15 5 -20
-27 -16 -7 1 -13 -6 -13 -16 0 -15 -2 -15 -9 -3 -6 8 -7 18 -4 24 3 5 1 6 -6
2 -19 -12 21 -66 48 -66 13 0 13 2 2 9 -17 11 -6 31 17 31 11 0 18 8 18 20 0
11 -4 20 -8 20 -4 0 -8 8 -8 18 0 10 3 13 8 6 4 -6 15 -13 25 -17 9 -3 17 -13
17 -22 0 -8 5 -15 11 -15 5 0 7 5 4 11 -4 6 1 17 11 24 18 13 18 14 2 15 -10
0 -18 -5 -18 -11 0 -5 -5 -7 -11 -4 -19 12 0 19 55 20 40 0 50 -2 42 -11 -6
-7 -14 -10 -19 -7 -20 12 -47 -10 -47 -37 0 -34 -15 -47 -27 -25 -7 11 -15 13
-29 8 -16 -7 -18 -14 -13 -48 3 -22 7 -30 8 -17 0 13 5 20 11 17 7 -4 8 3 4
21 l-7 27 26 -19 c15 -10 27 -28 27 -39 l1 -20 8 20 c5 11 6 35 3 53 -3 25 -1
32 11 32 9 0 19 -5 23 -12 5 -8 2 -9 -9 -5 -14 5 -16 0 -14 -33 2 -40 2 -40
19 -17 17 22 17 21 8 -13 -16 -56 -10 -63 26 -34 13 11 14 14 4 11 -10 -3 -16
2 -17 14 -1 10 3 19 9 19 6 0 3 9 -6 19 -10 11 -15 24 -12 30 4 5 2 12 -4 16
-5 3 -10 11 -10 17 0 6 3 8 6 5 4 -3 16 0 27 8 14 10 24 11 33 4 9 -8 11 -5 7
10 -4 15 -1 21 11 21 9 0 16 -5 16 -11 0 -5 -5 -7 -12 -3 -7 4 -8 3 -4 -4 5
-9 13 -9 27 -1 11 6 27 8 34 5 7 -2 23 4 36 15 24 21 34 24 24 9 -3 -5 -1 -10
4 -10 6 0 11 11 11 25 0 14 4 25 9 25 5 0 6 -21 4 -47 -5 -46 -5 -47 12 -28
14 17 16 17 11 3 -3 -10 -1 -18 4 -18 6 0 10 -7 10 -16 0 -11 5 -14 16 -10 11
4 15 2 11 -6 -2 -7 -1 -22 4 -33 6 -17 8 -17 8 -2 1 9 7 17 14 17 8 0 8 3 1 8
-6 4 -13 15 -17 25 -4 10 -12 15 -18 12 -6 -4 -10 -1 -8 6 1 8 1 25 -1 39 -1
18 -3 21 -8 10 -10 -21 -32 -24 -32 -4 0 8 5 25 11 36 8 15 8 19 0 14 -16 -10
-14 -2 10 44 12 23 24 68 26 104 5 55 2 70 -21 116 -24 49 -96 140 -96 123 0
-4 -5 -2 -11 4 -6 6 -18 9 -27 6 -9 -4 -13 -2 -9 3 3 6 -7 9 -24 8 -16 -1 -29
2 -29 7 0 5 -12 9 -26 9 -14 0 -23 -4 -19 -10z m-76 -172 c-2 -2 -16 -13 -30
-26 -23 -20 -27 -21 -32 -7 -5 11 3 19 26 29 18 7 34 12 36 10 2 -2 2 -5 0 -6z
m184 5 c-7 -2 -19 -2 -25 0 -7 3 -2 5 12 5 14 0 19 -2 13 -5z m-83 -190 c-11
-17 -11 -17 -6 0 3 10 6 24 7 30 0 9 2 9 5 0 3 -7 0 -20 -6 -30z m-207 -83
c-5 -6 -42 41 -43 55 0 6 11 -3 24 -20 13 -16 22 -32 19 -35z m32 -9 c3 -5 2
-12 -3 -15 -5 -3 -9 1 -9 9 0 17 3 19 12 6z"/>
<path d="M1510 1475 c0 -5 5 -17 10 -25 5 -8 10 -10 10 -5 0 6 -5 17 -10 25
-5 8 -10 11 -10 5z"/>
<path d="M2014 1452 c1 -19 5 -28 13 -25 10 4 10 10 1 26 -15 31 -15 31 -14
-1z"/>
<path d="M760 1465 c0 -5 5 -17 10 -25 5 -8 10 -10 10 -5 0 6 -5 17 -10 25 -5
8 -10 11 -10 5z"/>
<path d="M1705 1448 c-4 -16 -11 -25 -16 -22 -5 3 -7 8 -5 12 5 8 -40 6 -71
-3 -13 -4 -21 -11 -18 -15 2 -3 -13 -16 -34 -27 -28 -15 -42 -18 -50 -10 -8 8
-11 8 -11 0 0 -7 5 -15 11 -18 6 -5 3 -13 -10 -22 -12 -8 -19 -19 -16 -24 9
-13 -9 -11 -24 4 -11 10 -12 8 -3 -8 5 -11 6 -29 1 -40 -7 -17 -8 -17 -8 8 -1
15 -6 27 -12 27 -5 0 -8 -4 -5 -9 4 -5 2 -21 -4 -35 -7 -21 -6 -26 5 -26 11 0
15 -13 15 -50 0 -27 -4 -50 -10 -50 -16 0 -12 -30 12 -88 18 -43 20 -55 9 -61
-11 -7 -11 -10 0 -14 9 -4 8 -6 -5 -6 -15 -1 -16 -4 -6 -16 10 -12 10 -15 -1
-15 -9 -1 -8 -4 4 -11 21 -13 36 -4 20 12 -8 8 -7 18 3 37 7 14 11 29 8 34 -3
4 -7 18 -9 29 -4 21 -4 21 16 3 11 -10 17 -24 14 -31 -3 -8 0 -11 6 -8 6 4 18
0 27 -7 39 -34 157 -57 222 -44 14 3 19 3 12 0 -10 -5 -10 -9 -1 -20 7 -9 8
-14 1 -14 -6 0 -12 4 -14 8 -4 10 -158 3 -158 -7 0 -4 15 -6 33 -4 l32 3 -32
-10 c-18 -6 -33 -13 -33 -16 0 -3 9 -2 20 1 15 5 20 2 21 -12 0 -16 1 -16 9 2
5 11 9 16 9 11 1 -6 8 -1 17 10 12 15 15 16 10 2 -3 -9 -2 -19 2 -21 4 -2 1
-2 -6 -1 -12 4 -29 -22 -20 -31 8 -8 58 20 58 33 0 6 4 12 9 12 5 0 12 8 14
18 4 16 5 16 6 -1 0 -10 5 -16 10 -12 5 3 13 1 16 -5 4 -6 1 -9 -6 -8 -8 2
-13 -11 -15 -35 -2 -22 1 -35 7 -32 5 4 9 2 9 -3 0 -5 12 -14 26 -21 18 -8 25
-8 22 0 -2 6 -7 10 -11 10 -11 -1 -44 33 -40 41 2 4 15 0 29 -8 13 -9 27 -14
31 -10 11 10 20 96 11 96 -5 0 -6 4 -3 10 4 6 -1 7 -12 3 -16 -5 -16 -4 2 13
11 11 39 34 63 52 23 19 40 38 36 43 -3 5 0 9 6 9 6 0 9 4 6 8 -3 5 4 23 15
41 17 28 20 47 17 111 -2 43 -5 76 -7 74 -2 -2 -15 19 -29 46 -14 27 -29 47
-33 44 -4 -2 -14 4 -21 13 -19 27 -58 41 -95 36 -21 -3 -33 -1 -33 6 0 6 -6
11 -14 11 -8 0 -16 6 -19 13 -2 6 -8 0 -12 -15z m120 -28 c3 -6 -1 -7 -9 -4
-18 7 -21 14 -7 14 6 0 13 -4 16 -10z m-130 -42 c-5 -25 -4 -29 4 -18 9 12 11
9 11 -15 0 -36 34 -95 55 -95 8 0 15 -5 15 -11 0 -6 -7 -9 -15 -6 -8 4 -17 1
-21 -6 -4 -7 -4 -9 1 -5 4 4 14 3 21 -3 8 -7 14 -7 19 1 3 5 11 10 16 10 6 0
7 -5 3 -12 -5 -8 -2 -9 9 -5 10 3 17 2 17 -3 0 -5 8 -7 18 -3 41 15 -24 -39
-76 -63 -29 -13 -55 -32 -59 -42 -15 -45 -46 -102 -56 -102 -5 0 -7 3 -4 7 4
3 3 11 -2 17 -4 6 -16 36 -26 66 -19 60 -33 82 -45 75 -5 -3 -15 1 -23 9 -8 8
-17 12 -21 9 -3 -3 -12 -1 -20 6 -15 12 -16 35 -2 48 4 4 6 2 4 -6 -2 -7 5
-15 15 -16 14 -3 17 2 13 18 -3 12 -3 16 0 10 7 -15 34 -17 34 -3 0 5 6 7 14
4 19 -7 55 41 69 93 6 24 15 43 19 43 4 0 8 7 8 15 0 8 3 15 6 15 3 0 3 -15
-1 -32z m-225 -298 c0 -5 -5 -10 -11 -10 -5 0 -7 5 -4 10 3 6 8 10 11 10 2 0
4 -4 4 -10z m360 -195 c0 -19 -17 -28 -26 -14 -5 8 -3 9 6 4 9 -6 10 -2 5 15
-5 15 -4 20 4 16 6 -4 11 -13 11 -21z"/>
<path d="M1710 1256 c0 -2 7 -7 16 -10 8 -3 12 -2 9 4 -6 10 -25 14 -25 6z"/>
<path d="M1610 1216 c0 -2 7 -7 16 -10 8 -3 12 -2 9 4 -6 10 -25 14 -25 6z"/>
<path d="M1671 1074 c0 -11 3 -14 6 -6 3 7 2 16 -1 19 -3 4 -6 -2 -5 -13z"/>
<path d="M96 1417 c3 -10 9 -15 12 -12 3 3 0 11 -7 18 -10 9 -11 8 -5 -6z"/>
<path d="M1256 1407 c3 -10 9 -15 12 -12 3 3 0 11 -7 18 -10 9 -11 8 -5 -6z"/>
<path d="M546 1365 c-3 -8 -1 -15 4 -15 6 0 10 7 10 15 0 8 -2 15 -4 15 -2 0
-6 -7 -10 -15z"/>
<path d="M720 1342 c0 -12 4 -22 9 -22 10 0 9 26 -2 36 -4 4 -7 -2 -7 -14z"/>
<path d="M1280 1346 c0 -2 8 -10 18 -17 15 -13 16 -12 3 4 -13 16 -21 21 -21
13z"/>
<path d="M133 1304 c1 -30 27 -70 27 -41 0 7 -4 17 -9 23 -5 5 -11 18 -14 29
-3 12 -5 8 -4 -11z"/>
<path d="M305 1294 c-9 -15 -12 -23 -6 -20 11 7 35 46 28 46 -3 0 -12 -12 -22
-26z"/>
<path d="M101 1284 c0 -11 3 -14 6 -6 3 7 2 16 -1 19 -3 4 -6 -2 -5 -13z"/>
<path d="M1281 1244 c0 -11 3 -14 6 -6 3 7 2 16 -1 19 -3 4 -6 -2 -5 -13z"/>
<path d="M115 1210 c3 -5 8 -10 11 -10 2 0 4 5 4 10 0 6 -5 10 -11 10 -5 0 -7
-4 -4 -10z"/>
<path d="M1321 1204 c0 -11 3 -14 6 -6 3 7 2 16 -1 19 -3 4 -6 -2 -5 -13z"/>
<path d="M1432 1180 c0 -19 2 -27 5 -17 2 9 2 25 0 35 -3 9 -5 1 -5 -18z"/>
<path d="M162 1179 c-20 -17 -27 -38 -23 -61 0 -5 -4 -8 -9 -8 -5 0 -10 -9
-10 -19 0 -11 -5 -21 -11 -23 -7 -2 -13 -22 -15 -43 -2 -22 -5 -51 -8 -65 -3
-14 -6 -32 -8 -40 -5 -30 15 -167 34 -227 19 -64 33 -85 23 -35 l-6 27 14 -25
c8 -13 13 -32 12 -42 -2 -10 0 -16 4 -13 5 2 8 -7 9 -21 0 -13 7 -33 16 -43 9
-9 16 -22 16 -27 0 -5 -5 -2 -10 6 -9 13 -10 13 -10 0 0 -10 -7 -7 -21 10
l-21 25 14 -25 c9 -14 20 -25 26 -25 6 0 27 -17 47 -37 19 -21 39 -38 43 -38
5 0 19 -11 32 -25 12 -13 27 -22 31 -19 16 10 9 24 -16 34 -14 5 -36 21 -49
35 -13 14 -28 25 -33 25 -6 0 -16 7 -23 15 -8 9 -8 15 -2 15 6 0 12 -6 15 -12
2 -7 8 -10 11 -6 4 3 0 23 -10 43 -12 27 -19 33 -26 23 -7 -9 -8 -8 -7 7 1 11
-10 46 -24 78 -15 32 -27 64 -27 73 0 8 -7 28 -15 43 -28 55 -17 257 20 344 8
20 15 39 15 42 0 3 0 9 0 13 0 5 10 13 22 19 12 5 17 12 11 16 -5 3 -20 -3
-31 -14z"/>
<path d="M1395 1144 c1 -19 7 -40 15 -47 10 -10 11 -9 5 3 -5 8 -8 27 -7 42 1
14 -2 29 -6 32 -5 3 -8 -10 -7 -30z"/>
<path d="M165 1140 c3 -5 8 -10 11 -10 2 0 4 5 4 10 0 6 -5 10 -11 10 -5 0 -7
-4 -4 -10z"/>
<path d="M90 1125 c0 -5 5 -17 10 -25 5 -8 10 -10 10 -5 0 6 -5 17 -10 25 -5
8 -10 11 -10 5z"/>
<path d="M700 1092 c0 -6 5 -14 10 -17 8 -5 8 -11 1 -19 -8 -9 -6 -12 9 -11
11 1 23 5 27 10 5 4 2 5 -4 1 -8 -4 -13 -1 -13 7 0 8 -7 20 -15 27 -9 8 -15 9
-15 2z"/>
<path d="M1237 1070 c3 -11 7 -20 9 -20 2 0 4 9 4 20 0 11 -4 20 -9 20 -5 0
-7 -9 -4 -20z"/>
<path d="M1383 1075 c0 -8 6 -16 14 -19 11 -4 11 -1 3 14 -13 24 -17 25 -17 5z"/>
<path d="M175 1070 c3 -5 8 -10 11 -10 2 0 4 5 4 10 0 6 -5 10 -11 10 -5 0 -7
-4 -4 -10z"/>
<path d="M1949 1068 c0 -2 -3 -16 -5 -31 -4 -24 -3 -27 9 -16 8 8 12 21 9 31
-4 16 -10 23 -13 16z"/>
<path d="M360 1039 c0 -5 5 -7 10 -4 6 3 10 8 10 11 0 2 -4 4 -10 4 -5 0 -10
-5 -10 -11z"/>
<path d="M610 1017 c0 -27 -4 -37 -16 -37 -14 0 -14 -2 0 -15 21 -22 26 -19
27 18 2 28 2 29 6 5 2 -14 11 -29 18 -32 11 -4 12 -1 6 12 -10 19 -24 53 -25
64 -1 3 -4 10 -8 14 -5 4 -8 -9 -8 -29z"/>
<path d="M718 1012 c11 -11 20 -14 24 -8 7 11 -9 26 -29 26 -9 0 -7 -6 5 -18z"/>
<path d="M47 1004 c5 -2 8 -48 7 -101 -1 -60 4 -114 13 -138 13 -39 13 -39 7
-5 -3 19 -8 82 -10 140 -2 61 -8 106 -14 107 -6 1 -7 0 -3 -3z"/>
<path d="M1880 995 c0 -2 7 -8 15 -15 12 -10 15 -10 15 2 0 8 -7 15 -15 15 -8
0 -15 -1 -15 -2z"/>
<path d="M775 970 c-10 -11 -22 -17 -26 -14 -5 3 -5 -6 0 -19 5 -13 6 -30 1
-37 -9 -14 8 -50 24 -50 5 0 5 5 0 13 -5 6 -9 30 -9 52 0 35 3 40 22 39 17 0
20 3 12 12 -7 8 -6 14 3 17 7 3 8 6 2 6 -6 1 -19 -8 -29 -19z"/>
<path d="M1495 981 c-3 -5 -1 -12 5 -16 5 -3 10 1 10 9 0 18 -6 21 -15 7z"/>
<path d="M1520 981 c0 -5 7 -14 15 -21 8 -7 12 -16 9 -22 -3 -5 0 -15 6 -23
12 -14 4 -20 -22 -16 -4 0 -4 -7 -1 -16 4 -11 8 -13 11 -5 2 7 8 9 14 6 11 -7
39 27 31 39 -3 5 -11 6 -19 3 -19 -7 -18 11 0 21 12 6 9 12 -15 25 -16 9 -29
13 -29 9z"/>
<path d="M351 964 c0 -11 3 -14 6 -6 3 7 2 16 -1 19 -3 4 -6 -2 -5 -13z"/>
<path d="M390 976 c0 -2 8 -10 18 -17 15 -13 16 -12 3 4 -13 16 -21 21 -21 13z"/>
<path d="M697 960 c-3 -11 2 -24 12 -32 9 -7 13 -8 9 -4 -4 5 -3 15 3 23 9 10
8 13 -2 13 -11 0 -11 2 1 10 13 8 13 10 -1 10 -9 0 -19 -9 -22 -20z"/>
<path d="M1083 967 c-4 -7 -8 -19 -8 -27 0 -8 -7 -15 -16 -14 -11 1 -15 -9
-16 -35 0 -20 2 -30 4 -23 3 6 10 9 15 6 6 -4 8 -2 4 4 -3 6 -2 13 4 17 5 3
10 1 10 -5 0 -6 4 -9 9 -5 5 3 12 1 15 -4 3 -5 -4 -12 -17 -15 -19 -6 -20 -7
-5 -16 10 -6 14 -18 11 -32 -5 -23 -4 -23 17 2 12 14 19 19 15 13 -4 -9 -1
-11 9 -7 21 8 21 8 -20 54 l-37 41 22 20 c25 24 25 25 6 32 -8 4 -18 1 -22 -6z
m30 -118 c-8 -8 -13 -7 -18 2 -5 8 -4 10 3 5 7 -4 12 -2 12 5 0 7 3 9 7 6 4
-4 2 -12 -4 -18z"/>
<path d="M1871 947 c11 -10 23 -16 26 -13 3 3 13 1 22 -6 9 -7 6 -1 -6 12 -12
13 -31 24 -43 25 l-20 2 21 -20z"/>
<path d="M486 952 c-2 -4 4 -8 15 -8 10 0 19 4 19 8 0 4 -6 8 -14 8 -8 0 -17
-4 -20 -8z"/>
<path d="M1309 935 c-5 -67 -4 -70 17 -70 22 0 58 -24 49 -33 -2 -3 -13 1 -22
9 -17 12 -17 12 -1 -5 20 -23 45 -12 26 12 -11 13 -10 15 10 10 19 -5 21 -4
12 7 -9 11 -5 16 22 24 32 9 32 9 5 10 -19 1 -31 8 -37 24 -5 12 -9 16 -9 9
-1 -8 -9 -10 -26 -6 -20 5 -24 3 -19 -10 3 -9 4 -16 0 -16 -3 0 -10 15 -15 33
l-9 32 -3 -30z m66 -47 c-4 -34 -5 -35 -16 -15 -10 17 -5 37 10 37 5 0 7 -10
6 -22z"/>
<path d="M1590 950 c0 -5 5 -10 10 -10 6 0 10 5 10 10 0 6 -4 10 -10 10 -5 0
-10 -4 -10 -10z"/>
<path d="M623 938 c2 -7 10 -12 16 -10 17 3 13 -15 -5 -22 -8 -3 -12 -10 -9
-16 3 -5 1 -10 -6 -10 -7 0 -9 8 -6 21 4 16 3 19 -5 11 -16 -16 -2 -42 23 -42
15 0 19 5 15 15 -9 25 8 17 25 -11 14 -22 17 -24 22 -10 4 10 3 15 -3 11 -13
-8 -13 1 -1 24 7 13 6 18 -4 18 -7 0 -11 -7 -7 -15 4 -11 1 -13 -7 -8 -7 5
-11 17 -8 27 3 11 1 17 -3 14 -5 -3 -11 -1 -15 5 -9 14 -28 12 -22 -2z"/>
<path d="M585 930 c-3 -5 -1 -10 4 -10 6 0 11 5 11 10 0 6 -2 10 -4 10 -3 0
-8 -4 -11 -10z"/>
<path d="M1192 925 c-15 -17 -32 -20 -32 -5 0 6 -4 10 -9 10 -5 0 -8 -11 -7
-24 0 -13 4 -22 9 -19 4 2 7 -8 8 -24 1 -27 1 -27 9 5 10 41 18 51 30 32 7
-11 10 -8 10 13 0 31 0 31 -18 12z"/>
<path d="M506 915 c-3 -9 0 -15 9 -15 9 0 12 6 9 15 -4 8 -7 15 -9 15 -2 0 -5
-7 -9 -15z"/>
<path d="M1100 920 c0 -5 5 -10 11 -10 5 0 7 5 4 10 -3 6 -8 10 -11 10 -2 0
-4 -4 -4 -10z"/>
<path d="M1405 920 c3 -5 8 -10 11 -10 2 0 4 5 4 10 0 6 -5 10 -11 10 -5 0 -7
-4 -4 -10z"/>
<path d="M545 911 c-3 -6 1 -11 10 -11 11 0 15 -5 11 -15 -3 -8 -1 -15 4 -15
18 0 19 18 1 34 -13 11 -21 14 -26 7z"/>
<path d="M1230 913 c0 -6 8 -17 18 -24 16 -13 16 -13 2 6 -8 11 -16 22 -17 24
-2 2 -3 0 -3 -6z"/>
<path d="M1478 913 c-10 -2 -18 -8 -18 -13 0 -4 9 -6 20 -3 11 3 20 9 20 14 0
5 -1 8 -2 8 -2 -1 -11 -3 -20 -6z"/>
<path d="M351 894 c0 -11 3 -14 6 -6 3 7 2 16 -1 19 -3 4 -6 -2 -5 -13z"/>
<path d="M720 895 c-7 -9 -11 -18 -8 -20 3 -3 11 1 18 10 7 9 11 18 8 20 -3 3
-11 -1 -18 -10z"/>
<path d="M1891 894 c0 -11 3 -14 6 -6 3 7 2 16 -1 19 -3 4 -6 -2 -5 -13z"/>
<path d="M1936 897 c3 -10 9 -15 12 -12 3 3 0 11 -7 18 -10 9 -11 8 -5 -6z"/>
<path d="M1581 884 c0 -11 3 -14 6 -6 3 7 2 16 -1 19 -3 4 -6 -2 -5 -13z"/>
<path d="M1492 883 c-10 -4 -10 -8 -1 -19 15 -18 29 -18 29 0 0 18 -11 25 -28
19z"/>
<path d="M1183 855 c0 -14 2 -25 6 -25 10 0 11 39 2 45 -5 2 -8 -7 -8 -20z"/>
<path d="M1210 876 c0 -2 9 -6 20 -9 11 -3 18 -1 14 4 -5 9 -34 13 -34 5z"/>
<path d="M1415 870 c3 -5 8 -10 11 -10 2 0 4 5 4 10 0 6 -5 10 -11 10 -5 0 -7
-4 -4 -10z"/>
<path d="M1621 864 c0 -11 3 -14 6 -6 3 7 2 16 -1 19 -3 4 -6 -2 -5 -13z"/>
<path d="M2835 855 c4 -17 11 -34 16 -39 5 -5 4 5 -1 24 -12 42 -24 55 -15 15z"/>
<path d="M1445 860 c3 -5 8 -10 11 -10 2 0 4 5 4 10 0 6 -5 10 -11 10 -5 0 -7
-4 -4 -10z"/>
<path d="M1929 856 c9 -10 8 -16 -4 -26 -10 -9 -15 -9 -15 -1 0 6 -10 11 -22
10 -23 0 -23 0 -2 -9 12 -4 24 -15 27 -24 7 -18 27 -22 27 -5 0 5 -4 7 -10 4
-5 -3 -10 -1 -10 4 0 6 9 16 19 23 16 9 17 14 6 25 -18 17 -31 17 -16 -1z"/>
<path d="M2790 852 c0 -24 25 -48 35 -32 3 5 -1 13 -9 16 -9 3 -14 10 -11 14
3 5 1 11 -5 15 -5 3 -10 -3 -10 -13z"/>
<path d="M900 851 c0 -5 5 -13 10 -16 6 -3 10 -2 10 4 0 5 -4 13 -10 16 -5 3
-10 2 -10 -4z"/>
<path d="M1252 853 c-8 -3 -4 -11 13 -25 22 -17 24 -22 13 -36 -11 -13 -8 -12
14 2 20 13 27 14 31 4 3 -8 6 -8 6 -2 1 6 -7 18 -16 25 -11 10 -14 10 -9 2 11
-20 -9 -15 -27 5 -10 10 -14 22 -10 25 7 8 4 8 -15 0z"/>
<path d="M1280 850 c0 -5 5 -10 11 -10 5 0 7 5 4 10 -3 6 -8 10 -11 10 -2 0
-4 -4 -4 -10z"/>
<path d="M1566 848 c3 -5 10 -6 15 -3 13 9 11 12 -6 12 -8 0 -12 -4 -9 -9z"/>
<path d="M1690 850 c0 -5 7 -10 16 -10 8 0 13 -4 9 -9 -3 -5 -1 -12 4 -15 5
-4 8 1 7 10 -3 19 -36 41 -36 24z"/>
<path d="M746 823 c3 -33 9 -37 31 -24 17 10 17 10 -1 11 -11 0 -16 5 -13 14
3 8 0 17 -7 19 -9 4 -12 -3 -10 -20z"/>
<path d="M1969 833 c-13 -16 -12 -17 4 -4 9 7 17 15 17 17 0 8 -8 3 -21 -13z"/>
<path d="M1403 820 c-2 -22 -1 -23 21 -14 13 5 13 8 1 20 -18 18 -20 18 -22
-6z"/>
<path d="M656 818 c3 -4 12 -4 21 -1 12 5 14 3 8 -7 -5 -9 -4 -11 4 -6 16 10
4 25 -19 23 -10 -1 -17 -5 -14 -9z"/>
<path d="M1055 810 c2 -27 10 -33 12 -10 1 11 -2 22 -6 24 -4 3 -7 -4 -6 -14z"/>
<path d="M1837 817 c-3 -8 1 -14 8 -14 7 0 11 6 8 14 -3 7 -6 13 -8 13 -2 0
-5 -6 -8 -13z"/>
<path d="M595 811 c-3 -5 -2 -12 3 -15 5 -3 9 1 9 9 0 17 -3 19 -12 6z"/>
<path d="M1027 796 c3 -14 9 -24 13 -21 11 7 6 38 -7 42 -6 2 -8 -7 -6 -21z"/>
<path d="M1501 804 c0 -11 3 -14 6 -6 3 7 2 16 -1 19 -3 4 -6 -2 -5 -13z"/>
<path d="M140 795 c0 -5 5 -17 10 -25 5 -8 10 -10 10 -5 0 6 -5 17 -10 25 -5
8 -10 11 -10 5z"/>
<path d="M470 790 c0 -5 5 -10 11 -10 5 0 7 5 4 10 -3 6 -8 10 -11 10 -2 0 -4
-4 -4 -10z"/>
<path d="M1233 781 c1 -11 8 -21 15 -21 12 0 12 3 1 18 -7 9 -14 19 -16 21 -1
2 -1 -6 0 -18z"/>
<path d="M1770 787 c0 -8 7 -14 15 -14 11 0 12 4 4 14 -6 7 -13 13 -15 13 -2
0 -4 -6 -4 -13z"/>
<path d="M1142 775 c1 -32 15 -83 17 -60 2 20 2 20 16 1 8 -11 17 -17 20 -15
3 3 -3 14 -13 25 -9 10 -23 30 -29 44 -10 21 -12 22 -11 5z"/>
<path d="M1705 770 c10 -11 20 -20 23 -20 3 0 -3 9 -13 20 -10 11 -20 20 -23
20 -3 0 3 -9 13 -20z"/>
<path d="M1657 769 c7 -7 15 -10 18 -7 3 3 -2 9 -12 12 -14 6 -15 5 -6 -5z"/>
<path d="M1896 772 c-3 -5 1 -9 9 -9 8 0 12 4 9 9 -3 4 -7 8 -9 8 -2 0 -6 -4
-9 -8z"/>
<path d="M1062 750 c0 -14 2 -19 5 -12 2 6 2 18 0 25 -3 6 -5 1 -5 -13z"/>
<path d="M1277 757 c-3 -8 -1 -20 4 -28 6 -10 9 -7 9 14 0 29 -5 35 -13 14z"/>
<path d="M695 750 c-3 -5 -17 -10 -31 -10 -14 0 -39 -7 -56 -16 -22 -12 -28
-12 -23 -2 4 7 -10 -4 -30 -25 -20 -21 -33 -43 -29 -49 5 -7 3 -8 -5 -4 -8 5
-14 0 -18 -13 -3 -12 -10 -21 -15 -21 -5 0 -7 -4 -4 -9 4 -5 0 -12 -6 -14 -9
-4 -9 -6 -1 -6 8 -1 9 -10 2 -33 -11 -40 -11 -40 0 -34 5 4 7 -3 4 -14 -7 -27
-11 -25 -22 13 l-9 32 -1 -35 c-1 -43 34 -146 49 -143 5 2 10 -2 10 -8 0 -5 5
-7 10 -4 6 4 7 11 4 17 -9 14 38 0 51 -16 19 -21 46 -17 83 12 20 16 44 27 52
25 13 -4 13 -3 0 6 -12 9 -12 11 3 17 9 3 14 10 11 15 -3 5 2 12 10 15 25 10
58 125 52 187 -6 76 -18 96 -53 89 -25 -5 -27 -4 -14 12 12 14 12 16 -4 10
-13 -5 -16 -4 -11 4 4 7 5 12 2 12 -3 0 -8 -4 -11 -10z m-206 -297 c-3 -31 1
-38 12 -23 8 12 9 10 4 -7 -4 -14 -2 -23 5 -23 6 0 8 -5 4 -11 -3 -6 -14 2
-25 20 -21 35 -25 61 -8 61 5 0 9 -8 8 -17z"/>
<path d="M785 749 c-4 -6 -5 -12 -2 -15 2 -3 7 2 10 11 7 17 1 20 -8 4z"/>
<path d="M1776 752 c-3 -6 -1 -14 5 -17 15 -10 25 3 12 16 -7 7 -13 7 -17 1z"/>
<path d="M221 734 c0 -11 3 -14 6 -6 3 7 2 16 -1 19 -3 4 -6 -2 -5 -13z"/>
<path d="M515 740 c-3 -4 2 -13 10 -20 12 -10 15 -10 15 1 0 11 2 11 10 -1 8
-13 10 -13 10 1 0 17 -36 33 -45 19z"/>
<path d="M816 731 c-3 -5 1 -14 9 -21 8 -7 15 -19 15 -28 0 -8 3 -13 6 -9 4 3
15 -4 25 -16 10 -12 18 -17 19 -11 0 6 -11 21 -25 34 -13 12 -22 27 -19 32 3
5 2 8 -3 7 -20 -3 -27 2 -13 11 9 6 10 10 3 10 -6 0 -14 -4 -17 -9z"/>
<path d="M932 710 c0 -14 2 -19 5 -12 2 6 2 18 0 25 -3 6 -5 1 -5 -13z"/>
<path d="M2040 725 c0 -2 6 -8 13 -14 10 -8 14 -7 14 2 0 8 -6 14 -14 14 -7 0
-13 -1 -13 -2z"/>
<path d="M78 696 c-3 -15 -3 -24 1 -21 3 3 16 -16 28 -42 24 -50 23 -41 -7 40
-16 44 -18 46 -22 23z"/>
<path d="M2831 694 c0 -11 3 -14 6 -6 3 7 2 16 -1 19 -3 4 -6 -2 -5 -13z"/>
<path d="M1203 693 c-13 -2 -23 -8 -23 -13 0 -10 38 -1 46 11 3 5 4 8 2 8 -2
-1 -13 -4 -25 -6z"/>
<path d="M1656 688 c3 -5 10 -6 15 -3 13 9 11 12 -6 12 -8 0 -12 -4 -9 -9z"/>
<path d="M821 674 c0 -11 3 -14 6 -6 3 7 2 16 -1 19 -3 4 -6 -2 -5 -13z"/>
<path d="M1413 676 c0 -9 4 -16 8 -16 4 0 10 -8 13 -18 4 -10 13 -19 21 -19
13 0 13 2 0 16 -9 9 -22 24 -29 35 -11 16 -13 16 -13 2z"/>
<path d="M1801 661 c-8 -5 -9 -11 -3 -15 5 -3 12 1 16 9 6 17 6 18 -13 6z"/>
<path d="M1925 660 c-3 -5 -1 -10 4 -10 6 0 11 5 11 10 0 6 -2 10 -4 10 -3 0
-8 -4 -11 -10z"/>
<path d="M1090 656 c0 -2 7 -7 16 -10 8 -3 12 -2 9 4 -6 10 -25 14 -25 6z"/>
<path d="M950 630 c0 -5 5 -10 11 -10 5 0 7 5 4 10 -3 6 -8 10 -11 10 -2 0 -4
-4 -4 -10z"/>
<path d="M1205 610 c4 -6 11 -8 16 -5 14 9 11 15 -7 15 -8 0 -12 -5 -9 -10z"/>
<path d="M851 594 c0 -11 3 -14 6 -6 3 7 2 16 -1 19 -3 4 -6 -2 -5 -13z"/>
<path d="M1298 593 c6 -2 18 -2 25 0 6 3 1 5 -13 5 -14 0 -19 -2 -12 -5z"/>
<path d="M135 579 c-4 -6 -5 -12 -2 -15 2 -3 7 2 10 11 7 17 1 20 -8 4z"/>
<path d="M2456 574 c-4 -9 -4 -19 -1 -22 2 -3 7 3 11 12 4 9 4 19 1 22 -2 3
-7 -3 -11 -12z"/>
<path d="M266 535 c-3 -8 -1 -15 4 -15 6 0 10 7 10 15 0 8 -2 15 -4 15 -2 0
-6 -7 -10 -15z"/>
<path d="M2800 527 c0 -9 -2 -24 -5 -34 -3 -10 1 -5 8 11 9 17 17 24 20 17 4
-8 5 -8 3 1 -3 18 -26 22 -26 5z"/>
<path d="M2354 499 c-3 -6 -1 -16 5 -22 8 -8 11 -5 11 11 0 24 -5 28 -16 11z"/>
<path d="M1340 491 c0 -6 4 -13 10 -16 6 -3 7 1 4 9 -7 18 -14 21 -14 7z"/>
<path d="M2827 485 c-4 -8 -3 -16 1 -19 4 -3 9 4 9 15 2 23 -3 25 -10 4z"/>
<path d="M270 486 c0 -2 8 -10 18 -17 15 -13 16 -12 3 4 -13 16 -21 21 -21 13z"/>
<path d="M2296 477 c3 -10 9 -15 12 -12 3 3 0 11 -7 18 -10 9 -11 8 -5 -6z"/>
<path d="M2440 481 c0 -6 4 -13 10 -16 6 -3 7 1 4 9 -7 18 -14 21 -14 7z"/>
<path d="M2465 465 c0 -13 3 -21 8 -18 4 2 7 10 7 18 0 8 -3 16 -7 18 -5 3 -8
-5 -8 -18z"/>
<path d="M2520 490 c-1 -3 -3 -21 -5 -40 -4 -31 -3 -32 6 -11 5 14 8 32 6 40
-3 9 -6 14 -7 11z"/>
<path d="M2140 470 c0 -5 5 -10 11 -10 6 0 9 -9 6 -20 -3 -11 0 -23 5 -27 7
-3 8 -1 4 5 -4 7 -2 12 4 12 6 0 8 5 5 10 -3 6 -1 10 6 10 7 0 4 7 -7 15 -23
17 -34 19 -34 5z"/>
<path d="M2417 459 c7 -7 15 -10 18 -7 3 3 -2 9 -12 12 -14 6 -15 5 -6 -5z"/>
<path d="M210 440 c14 -26 23 -36 55 -60 11 -8 4 4 -15 25 -19 22 -39 45 -44
50 -5 6 -3 -1 4 -15z"/>
<path d="M1396 447 c3 -10 9 -15 12 -12 3 3 0 11 -7 18 -10 9 -11 8 -5 -6z"/>
<path d="M1163 425 c0 -8 4 -12 9 -9 5 3 6 10 3 15 -9 13 -12 11 -12 -6z"/>
<path d="M2409 424 c-9 -11 -7 -14 12 -15 13 -1 27 -1 32 0 4 0 7 -6 7 -14 0
-9 9 -15 25 -15 29 0 34 24 8 34 -64 23 -72 24 -84 10z"/>
<path d="M2640 423 c0 -6 8 -17 18 -24 16 -13 16 -13 2 6 -8 11 -16 22 -17 24
-2 2 -3 0 -3 -6z"/>
<path d="M2375 410 c-3 -5 -1 -10 4 -10 6 0 11 5 11 10 0 6 -2 10 -4 10 -3 0
-8 -4 -11 -10z"/>
<path d="M2563 410 c28 -18 20 -32 -13 -25 -41 9 -38 1 8 -21 46 -22 102 -27
102 -9 0 7 6 16 13 18 6 3 -1 6 -16 6 -20 1 -26 -3 -21 -11 5 -10 4 -10 -6 -1
-7 6 -18 9 -24 7 -6 -2 -16 6 -21 18 -6 12 -17 23 -25 25 -10 3 -9 1 3 -7z"/>
<path d="M2710 410 c0 -5 7 -7 15 -4 8 4 15 8 15 10 0 2 -7 4 -15 4 -8 0 -15
-4 -15 -10z"/>
<path d="M1071 394 c0 -11 3 -14 6 -6 3 7 2 16 -1 19 -3 4 -6 -2 -5 -13z"/>
<path d="M2285 393 c-27 -8 -53 -20 -57 -26 -5 -9 -10 -9 -19 0 -8 8 -18 9
-30 2 -10 -5 -22 -8 -26 -7 -4 1 -18 -3 -29 -10 -12 -6 -24 -8 -28 -4 -4 3
-11 0 -16 -8 -7 -11 -10 -11 -10 -2 0 10 -5 10 -22 1 -25 -14 -58 -20 -103
-20 -16 0 -38 -8 -49 -17 -13 -11 -17 -12 -11 -3 6 11 4 13 -11 6 -33 -14 -81
-17 -88 -6 -4 6 -12 11 -17 11 -6 0 -8 -4 -5 -8 3 -5 -14 -9 -36 -10 -23 -1
-45 -7 -49 -13 -5 -8 -8 -8 -13 0 -4 6 -13 11 -19 11 -9 0 -9 -2 0 -8 14 -9 5
-26 -17 -36 -8 -3 -4 -4 10 -1 14 2 36 5 50 5 19 0 21 3 11 9 -14 9 -3 11 141
25 36 4 37 3 27 -17 -9 -19 -8 -20 3 -6 7 8 23 18 36 21 18 5 21 4 13 -6 -8
-9 -7 -13 4 -13 8 0 15 6 15 14 0 7 9 13 21 13 11 0 17 5 14 10 -3 6 1 10 10
10 9 0 13 -5 10 -10 -8 -13 39 -3 79 17 24 12 30 13 37 1 7 -10 9 -10 9 0 0 6
9 12 19 12 11 0 22 -6 24 -12 3 -8 6 -6 6 5 1 9 4 16 9 15 4 -1 20 4 35 10 16
7 33 9 39 6 7 -4 8 -2 4 4 -5 8 1 13 16 13 13 1 30 3 38 4 8 1 24 3 35 4 11 2
15 5 7 8 -6 2 -10 9 -6 14 7 12 -1 11 -61 -8z"/>
<path d="M345 370 c3 -5 8 -10 11 -10 2 0 4 5 4 10 0 6 -5 10 -11 10 -5 0 -7
-4 -4 -10z"/>
<path d="M2750 365 c-9 -11 -16 -12 -31 -2 -16 10 -21 9 -29 -3 -5 -8 -7 -17
-5 -20 6 -9 75 1 75 11 0 5 7 6 15 3 8 -4 15 -2 15 4 0 17 -28 22 -40 7z"/>
<path d="M377 357 c-4 -10 3 -17 20 -22 30 -7 44 2 17 12 -10 3 -22 11 -25 16
-3 5 -9 2 -12 -6z"/>
<path d="M1745 360 c3 -5 8 -10 11 -10 2 0 4 5 4 10 0 6 -5 10 -11 10 -5 0 -7
-4 -4 -10z"/>
<path d="M536 351 c-4 -5 3 -7 14 -4 23 6 26 13 6 13 -8 0 -17 -4 -20 -9z"/>
<path d="M761 334 c0 -11 3 -14 6 -6 3 7 2 16 -1 19 -3 4 -6 -2 -5 -13z"/>
<path d="M490 319 c-13 -8 -12 -11 4 -24 16 -12 22 -12 28 -2 11 16 10 29 -1
23 -5 -4 -11 -2 -13 4 -2 6 -8 6 -18 -1z"/>
<path d="M849 318 c15 -21 31 -23 31 -6 0 6 -3 8 -7 5 -3 -4 -13 -1 -22 6 -14
11 -14 10 -2 -5z"/>
<path d="M430 297 c0 -3 12 -12 26 -22 15 -9 23 -12 20 -6 -7 11 -46 35 -46
28z"/>
<path d="M530 289 c0 -5 17 -9 38 -8 20 1 45 -2 55 -6 10 -4 17 -3 17 4 0 6
-3 11 -7 12 -57 7 -103 6 -103 -2z"/>
<path d="M863 279 c-7 -7 -34 -12 -61 -13 -28 0 -48 -5 -45 -10 3 -4 24 -6 47
-3 51 7 88 -1 79 -17 -4 -6 1 -5 10 3 9 7 17 9 17 4 0 -6 11 -8 25 -5 14 2 25
8 25 12 0 5 -8 6 -19 3 -10 -3 -22 0 -25 6 -4 5 -13 8 -20 5 -8 -3 -17 0 -22
7 -5 8 -3 10 6 4 9 -5 11 -4 6 3 -9 15 -9 15 -23 1z"/>
<path d="M980 276 c0 -2 7 -7 16 -10 8 -3 12 -2 9 4 -6 10 -25 14 -25 6z"/>
<path d="M1130 270 c18 -12 40 -13 40 -2 0 4 -12 9 -27 10 -22 1 -24 0 -13 -8z"/>
<path d="M1265 270 c-18 -7 -17 -8 10 -15 17 -4 36 -9 44 -11 11 -3 9 1 -4 16
-20 22 -21 22 -50 10z"/>
<path d="M1566 269 c2 -4 17 -5 31 -3 42 8 42 15 1 12 -20 -1 -35 -5 -32 -9z"/>
<path d="M2270 271 c0 -5 5 -13 10 -16 6 -3 10 -2 10 4 0 5 -4 13 -10 16 -5 3
-10 2 -10 -4z"/>
<path d="M1364 262 c3 -5 19 -9 37 -10 39 -1 34 5 -10 13 -18 3 -30 2 -27 -3z"/>
<path d="M1060 250 c20 -13 50 -13 50 0 0 6 -15 10 -32 10 -25 0 -29 -3 -18
-10z"/>
<path d="M1010 240 c0 -5 7 -7 15 -4 8 4 15 8 15 10 0 2 -7 4 -15 4 -8 0 -15
-4 -15 -10z"/>
<path d="M560 206 c0 -2 8 -10 18 -17 15 -13 16 -12 3 4 -13 16 -21 21 -21 13z"/>
<path d="M1513 203 c9 -2 23 -2 30 0 6 3 -1 5 -18 5 -16 0 -22 -2 -12 -5z"/>
<path d="M1655 190 c3 -5 8 -10 11 -10 2 0 4 5 4 10 0 6 -5 10 -11 10 -5 0 -7
-4 -4 -10z"/>
<path d="M1678 114 c-4 -3 -38 -7 -77 -9 -39 -1 -78 -8 -86 -15 -20 -17 -21
-90 0 -90 16 0 18 23 6 55 -7 18 -3 21 38 30 50 11 114 8 106 -5 -3 -5 5 -6
17 -3 20 6 21 4 14 -35 -6 -38 -4 -42 14 -42 16 0 20 7 20 33 0 50 -33 101
-52 81z"/>
</g>
</svg>
